<svg version="1.2" xmlns="http://www.w3.org/2000/svg" viewBox="0 0 31 31" width="31" height="31">
	<title>image</title>
	<style>
		.s0 { fill: #2e1619 } 
	</style>
	<path id="Layer" fill-rule="evenodd" class="s0" d="m23.6 3.4c2.4 1.6 4.3 3.9 5.4 6.5 1.1 2.7 1.4 5.6 0.8 8.4-0.6 2.9-1.9 5.5-4 7.5-2 2.1-4.6 3.4-7.5 4-2.8 0.6-5.7 0.3-8.4-0.8-2.6-1.1-4.9-3-6.5-5.4-1.6-2.4-2.5-5.2-2.5-8.1 0-0.4 0.2-0.8 0.4-1 0.3-0.3 0.7-0.5 1.1-0.5 0.4 0 0.7 0.2 1 0.5 0.3 0.2 0.4 0.6 0.4 1 0 2.7 1 5.3 2.7 7.4 1.7 2.1 4.1 3.6 6.8 4.1 2.6 0.5 5.4 0.1 7.8-1.2 2.3-1.3 4.2-3.4 5.2-5.9 1-2.5 1.1-5.3 0.3-7.9-0.8-2.6-2.5-4.8-4.8-6.3-2.2-1.4-5-2.1-7.7-1.7-2.7 0.3-5.2 1.5-7 3.5h3.5c0.4 0 0.7 0.1 1 0.4 0.3 0.3 0.4 0.7 0.4 1 0 0.4-0.1 0.8-0.4 1.1-0.3 0.2-0.6 0.4-1 0.4h-6.6c-0.4 0-0.7-0.2-1-0.4-0.3-0.3-0.5-0.7-0.5-1.1v-6.5c0-0.4 0.2-0.8 0.5-1.1 0.3-0.2 0.6-0.4 1-0.4 0.4 0 0.8 0.2 1 0.4 0.3 0.3 0.5 0.7 0.5 1.1v2.6c2.7-2.6 6.3-4.1 10-4.1 2.9 0 5.7 0.9 8.1 2.5zm-7.1 6.7c0.3 0.3 0.5 0.6 0.5 1v2.9h1.4c0.4 0 0.8 0.2 1 0.5 0.3 0.2 0.5 0.6 0.5 1 0 0.4-0.2 0.8-0.5 1-0.2 0.3-0.6 0.5-1 0.5h-2.9c-0.4 0-0.8-0.2-1-0.5-0.3-0.2-0.5-0.6-0.5-1v-4.4c0-0.4 0.2-0.7 0.5-1 0.2-0.3 0.6-0.4 1-0.4 0.4 0 0.8 0.1 1 0.4z"/>
</svg>