<svg version="1.2" xmlns="http://www.w3.org/2000/svg" viewBox="0 0 36 36" width="36" height="36">
	<title>image</title>
	<defs>
		<linearGradient id="g1" x1="7" y1="12.2" x2="51.3" y2="13.4" gradientUnits="userSpaceOnUse">
			<stop offset="0" stop-color="#ff7594"/>
			<stop offset=".5" stop-color="#ff797b"/>
			<stop offset="1" stop-color="#ff7c65"/>
		</linearGradient>
	</defs>
	<style>
		.s0 { fill: url(#g1) } 
	</style>
	<path id="Layer" class="s0" d="m23.8 0c0.5 0 1.1 0.2 1.5 0.7 0.5 0.4 0.7 1 0.7 1.6 0 4.2 3.5 7.7 7.7 7.7 0.6 0 1.2 0.2 1.6 0.7 0.5 0.4 0.7 1 0.7 1.5v11.6c0 0.5-0.2 1.1-0.7 1.5-0.4 0.5-1 0.7-1.6 0.7-4.2 0-7.7 3.5-7.7 7.8 0 0.5-0.2 1.1-0.7 1.5-0.4 0.5-1 0.7-1.6 0.7h-11.5c-0.5 0-1.1-0.2-1.5-0.7-0.5-0.4-0.7-1-0.7-1.5 0-4.3-3.5-7.8-7.8-7.8-0.5 0-1.1-0.2-1.5-0.7-0.5-0.4-0.7-1-0.7-1.5v-11.5c0-0.6 0.2-1.2 0.7-1.6 0.4-0.5 1-0.7 1.5-0.7 4.3 0 7.8-3.5 7.8-7.8 0-0.5 0.2-1.1 0.7-1.5 0.4-0.5 1-0.7 1.5-0.7z"/>
</svg>